<svg width="246" height="336" viewBox="0 0 246 336" fill="none" xmlns="http://www.w3.org/2000/svg">
<path d="M170.19 207.65C171.61 208.66 173.19 209.49 174.41 210.7C182.94 219.1 191.37 227.61 199.91 236.01C202.24 238.3 203.09 240.72 202.6 244.05C200.82 256.26 199.31 268.5 197.69 280.74C196.98 286.1 195.5 287.59 190.18 288.3C177.7 289.97 165.22 291.59 152.76 293.35C149.59 293.8 147.27 292.71 145.09 290.51C136.31 281.65 127.44 272.88 118.59 264.09C117.74 263.24 116.84 262.45 115.51 261.21C115.41 262.96 115.28 264.13 115.28 265.31C115.27 276.91 115.2 288.51 115.31 300.11C115.34 303.51 114.25 306.04 111.59 308.2C101.44 316.48 91.42 324.9 81.31 333.23C77.62 336.27 75.37 336.24 71.68 333.19C61.59 324.85 51.56 316.43 41.4 308.16C38.73 305.99 37.68 303.46 37.71 300.07C37.82 287.36 37.75 274.65 37.75 261.21C36.48 262.29 35.65 262.91 34.92 263.63C26.51 271.98 18.06 280.29 9.76002 288.74C7.26002 291.29 4.59002 292.1 1.04002 291.73C-11.48 290.42 -24.03 289.35 -36.58 288.29C-42.28 287.81 -44.06 286.28 -44.59 280.55C-45.79 267.51 -47.08 254.48 -47.93 241.42C-48.08 239.18 -46.79 236.27 -45.19 234.59C-37.09 226.12 -28.67 217.95 -20.37 209.67C-19.5 208.81 -18.69 207.89 -17.17 206.25C-19.31 206.25 -20.61 206.25 -21.91 206.25C-33.51 206.25 -45.11 206.18 -56.71 206.29C-60.12 206.32 -62.57 205.17 -64.74 202.51C-72.8 192.67 -81.03 182.97 -89.19 173.21C-93.02 168.63 -93 166.85 -89.08 162.17C-80.92 152.41 -72.69 142.71 -64.63 132.87C-62.54 130.32 -60.19 129.19 -56.92 129.22C-45.32 129.32 -33.72 129.26 -22.12 129.26C-20.79 129.26 -19.46 129.26 -17.3 129.26C-18.57 127.82 -19.22 127 -19.96 126.26C-28.35 117.89 -36.7 109.48 -45.17 101.19C-47.51 98.9001 -48.36 96.4701 -48.03 93.1701C-46.77 80.6401 -45.75 68.0901 -44.65 55.5501C-44.09 49.1201 -42.5 47.7301 -36.05 47.2001C-23.87 46.2001 -11.69 45.2201 0.450012 43.8401C4.62001 43.3701 7.56002 44.4401 10.41 47.4101C19.04 56.4101 27.87 65.2101 37.51 75.0001C37.63 72.5801 37.74 71.3401 37.74 70.0901C37.75 58.3601 37.93 46.6401 37.66 34.9201C37.55 30.0701 39.03 26.7901 43.04 23.9101C52.75 16.9201 62.15 9.49009 71.69 2.26009C75.61 -0.709912 77.39 -0.729912 81.37 2.28009C91.32 9.80009 101.2 17.4001 111.2 24.8501C114.06 26.9801 115.34 29.5101 115.31 33.1001C115.19 45.3201 115.26 57.5501 115.26 69.7701C115.26 71.0801 115.26 72.3901 115.26 74.5301C116.79 73.1101 117.68 72.3201 118.53 71.4801C127.46 62.5901 136.41 53.7301 145.29 44.7901C147.39 42.6801 149.66 41.7401 152.67 42.1601C165.26 43.9101 177.86 45.5601 190.46 47.2501C195.36 47.9101 196.93 49.4001 197.6 54.3301C199.33 67.0501 201.18 79.7601 202.54 92.5201C202.77 94.7001 201.42 97.6701 199.82 99.3301C191.18 108.33 182.24 117.03 173.41 125.83C172.54 126.69 171.73 127.61 170.17 129.26C172.32 129.26 173.61 129.26 174.9 129.26C187.25 129.26 199.6 129.34 211.95 129.21C215.53 129.17 218.01 130.42 220.17 133.31C227.56 143.2 235.17 152.92 242.66 162.73C245.82 166.86 245.83 168.62 242.7 172.71C235.13 182.62 227.46 192.45 219.98 202.43C217.89 205.22 215.43 206.31 212.02 206.29C199.67 206.19 187.32 206.25 174.97 206.25C173.65 206.25 172.34 206.25 171.02 206.25C170.77 206.7 170.48 207.18 170.19 207.65ZM140.79 194.27C133.15 186.6 126.37 179.81 119.61 172.99C115.8 169.15 115.82 166.3 119.66 162.43C123 159.07 126.33 155.7 129.74 152.41C133.27 149 136.9 145.69 140.49 142.33C140.26 141.95 140.02 141.58 139.79 141.2C138.47 141.2 137.15 141.2 135.83 141.2C127.48 141.2 119.12 141.25 110.77 141.18C105.3 141.13 103.39 139.14 103.34 133.68C103.31 130.19 103.33 126.7 103.33 123.21C103.33 117.03 103.33 110.85 103.33 103.81C101.8 105.2 100.9 105.95 100.06 106.78C94.04 112.75 88.05 118.75 82.01 124.7C78.01 128.65 75.11 128.66 71.16 124.76C64.95 118.62 58.79 112.45 52.58 106.31C51.87 105.61 51.04 105.03 49.76 103.99C49.76 114.37 49.78 123.96 49.75 133.55C49.73 139.2 47.79 141.16 42.08 141.2C33.73 141.26 25.37 141.21 17.02 141.23C15.74 141.23 14.46 141.35 12.47 141.44C19.84 148.82 26.61 155.57 33.35 162.36C37.33 166.37 37.32 169.16 33.29 173.2C27.22 179.29 21.1 185.34 15.02 191.43C14.31 192.14 13.7 192.96 12.58 194.28C20.88 194.28 28.35 194.28 35.82 194.28C49.77 194.28 49.77 194.28 49.77 208.01C49.77 214.62 49.76 221.23 49.78 227.83C49.78 228.87 49.93 229.92 50.1 232.28C57.67 224.53 64.41 217.56 71.23 210.67C75.01 206.85 78.02 206.85 81.81 210.57C88.03 216.69 94.19 222.87 100.39 229.01C101.13 229.74 101.97 230.36 103.33 231.52C103.33 221.2 103.31 211.64 103.34 202.08C103.36 196.19 105.24 194.33 111.22 194.28C116.33 194.24 121.44 194.27 126.56 194.27C130.97 194.27 135.4 194.27 140.79 194.27ZM76.55 13.5701C67.99 20.0901 59.71 26.2901 51.58 32.7001C50.55 33.5101 49.84 35.3701 49.83 36.7501C49.71 52.4701 49.69 68.1901 49.85 83.9001C49.87 85.5201 50.82 87.4701 51.96 88.6701C57.21 94.1801 62.74 99.4101 68.04 104.87C70.79 107.7 73.27 110.79 76.24 114.19C85.39 104.86 93.64 96.5301 101.76 88.0801C102.66 87.1401 103.25 85.4901 103.26 84.1601C103.36 68.3201 103.36 52.4701 103.26 36.6301C103.25 35.3301 102.67 33.5701 101.72 32.8301C93.49 26.3701 85.12 20.0901 76.55 13.5701ZM115.29 128.75C116.08 128.98 116.43 129.18 116.78 129.18C128.24 129.21 139.7 129.27 151.16 129.16C152.34 129.15 153.77 128.35 154.65 127.48C166.1 116.21 177.5 104.88 188.81 93.4601C189.7 92.5601 190.33 90.8301 190.19 89.5801C189.07 80.0601 187.79 70.5601 186.38 61.0901C186.23 60.1101 184.94 58.6901 184.01 58.5501C174.53 57.1301 165.03 55.8301 155.51 54.7801C153.96 54.6101 151.83 55.4001 150.7 56.5101C139.47 67.4701 128.34 78.5501 117.33 89.7301C116.19 90.8901 115.44 92.9101 115.38 94.5601C115.16 101.16 115.29 107.76 115.29 114.37C115.29 119.2 115.29 124.02 115.29 128.75ZM115.3 206.23C115.3 218.67 115.24 230.49 115.4 242.31C115.42 243.55 116.54 244.99 117.52 245.97C128.42 256.92 139.43 267.75 150.29 278.73C152.07 280.53 153.78 281.12 156.2 280.77C165.19 279.47 174.19 278.2 183.22 277.15C185.6 276.87 186.32 275.94 186.59 273.72C187.68 264.83 188.89 255.95 190.19 247.08C190.54 244.66 190.03 242.93 188.2 241.15C178.39 231.58 168.5 222.08 159.11 212.11C154.93 207.67 150.67 205.73 144.52 206.08C134.97 206.63 125.38 206.23 115.3 206.23ZM76.57 321.63C85.24 314.43 93.7 307.48 102.03 300.38C102.87 299.66 103.27 298 103.28 296.78C103.36 281.69 103.39 266.61 103.25 251.52C103.24 250 102.44 248.12 101.38 247.02C95.24 240.65 88.85 234.51 82.66 228.19C80.69 226.18 79.06 223.83 76.93 221.2C67.69 230.62 59.45 238.94 51.34 247.4C50.44 248.34 49.84 249.99 49.83 251.31C49.73 266.52 49.72 281.73 49.84 296.94C49.85 298.23 50.52 299.93 51.47 300.74C59.62 307.68 67.92 314.47 76.57 321.63ZM231.48 167.73C224.92 159.19 218.6 150.85 212.08 142.67C211.34 141.74 209.51 141.27 208.18 141.27C192.46 141.18 176.75 141.14 161.03 141.3C159.28 141.32 157.14 142.21 155.87 143.42C148.57 150.4 141.47 157.59 134.31 164.72C133.37 165.66 132.49 166.66 131.69 167.52C140.3 176.28 148.64 184.84 157.11 193.27C157.85 194 159.37 194.21 160.53 194.21C176.5 194.27 192.46 194.3 208.43 194.17C209.81 194.16 211.64 193.36 212.47 192.3C218.84 184.32 225 176.16 231.48 167.73ZM37.77 129.22C37.77 116.7 37.82 104.75 37.69 92.7901C37.68 91.7601 36.7 90.5701 35.88 89.7401C25.31 79.1501 14.74 68.5601 4.01002 58.1301C2.79002 56.9501 0.570015 56.1001 -1.11999 56.2101C-10.69 56.8101 -20.24 57.8201 -29.81 58.5301C-32.15 58.7101 -32.97 59.6501 -33.16 61.9201C-33.95 71.6101 -34.96 81.2801 -35.66 90.9701C-35.76 92.3301 -35.01 94.1501 -34.02 95.1401C-23.33 105.96 -12.52 116.67 -1.68999 127.35C-0.859985 128.17 0.350014 129.11 1.39001 129.12C13.33 129.27 25.28 129.22 37.77 129.22ZM37.79 206.56C36.75 206.41 36.15 206.25 35.55 206.25C24.45 206.23 13.35 206.15 2.26002 206.33C0.77002 206.35 -0.98999 207.44 -2.11999 208.55C-10.6 216.82 -18.58 225.65 -27.48 233.42C-34 239.11 -36.94 244.94 -35.11 253.71C-33.57 261.09 -33.51 268.77 -32.77 276.55C-21.44 277.55 -10.41 278.57 0.640015 279.4C1.63001 279.47 2.90002 278.53 3.72002 277.72C14.46 267.12 25.19 256.51 35.77 245.76C36.91 244.6 37.67 242.57 37.72 240.92C37.93 233.82 37.81 226.71 37.81 219.6C37.79 215.28 37.79 210.96 37.79 206.56ZM-78.11 167.73C-70.91 176.34 -64.01 184.68 -56.95 192.9C-56.22 193.75 -54.58 194.2 -53.35 194.21C-38.01 194.3 -22.68 194.31 -7.33998 194.19C-5.91998 194.18 -4.16998 193.43 -3.13998 192.43C4.65002 184.88 12.3 177.19 19.97 169.52C20.54 168.95 20.96 168.21 21.38 167.65C12.94 159.14 4.71001 150.8 -3.60999 142.55C-4.38998 141.78 -5.77998 141.27 -6.89999 141.27C-22.49 141.19 -38.07 141.19 -53.66 141.27C-54.77 141.28 -56.24 141.73 -56.91 142.52C-63.95 150.75 -70.87 159.09 -78.11 167.73Z" fill="#0F5F38"/>
</svg>
